<?xml version="1.0" encoding="UTF-8"?>
<!DOCTYPE svg PUBLIC "-//W3C//DTD SVG 1.1//EN" "http://www.w3.org/Graphics/SVG/1.1/DTD/svg11.dtd">
<svg xmlns="http://www.w3.org/2000/svg" version="1.1" width="200px" height="200px" style="shape-rendering:geometricPrecision; text-rendering:geometricPrecision; image-rendering:optimizeQuality; fill-rule:evenodd; clip-rule:evenodd" xmlns:xlink="http://www.w3.org/1999/xlink">
<g><path style="opacity:1" fill="#fefefe" d="M -0.5,-0.5 C 66.1667,-0.5 132.833,-0.5 199.5,-0.5C 199.5,66.1667 199.5,132.833 199.5,199.5C 132.833,199.5 66.1667,199.5 -0.5,199.5C -0.5,132.833 -0.5,66.1667 -0.5,-0.5 Z"/></g>
<g><path style="opacity:1" fill="#030303" d="M 97.5,45.5 C 105.798,54.2983 114.298,62.965 123,71.5C 123.667,82.8333 123.667,94.1667 123,105.5C 118.667,101.167 114.333,96.8333 110,92.5C 109.5,85.5079 109.334,78.5079 109.5,71.5C 102.833,71.5 96.1667,71.5 89.5,71.5C 89.6665,82.8382 89.4999,94.1716 89,105.5C 84.6667,101.167 80.3333,96.8333 76,92.5C 75.5001,81.1716 75.3335,69.8382 75.5,58.5C 82.5,58.5 89.5,58.5 96.5,58.5C 96.1818,53.9677 96.5151,49.6344 97.5,45.5 Z"/></g>
<g><path style="opacity:1" fill="#7e7e7e" d="M 97.5,45.5 C 96.5151,49.6344 96.1818,53.9677 96.5,58.5C 89.5,58.5 82.5,58.5 75.5,58.5C 81.979,57.5093 88.6457,57.176 95.5,57.5C 95.1744,53.1161 95.5078,48.7828 96.5,44.5C 97.1067,44.6236 97.44,44.9569 97.5,45.5 Z"/></g>
<g><path style="opacity:1" fill="#151515" d="M 82.5,114.5 C 85.1873,114.336 87.854,114.503 90.5,115C 92.6044,116.836 92.9377,119.002 91.5,121.5C 83.0688,118.964 79.9021,121.964 82,130.5C 84.6121,133.576 87.7787,134.243 91.5,132.5C 92.9377,134.998 92.6044,137.164 90.5,139C 79.3333,139.833 74.1667,134.667 75,123.5C 76.6416,119.7 79.1416,116.7 82.5,114.5 Z"/></g>
<g><path style="opacity:1" fill="#040404" d="M 116.5,138.5 C 116.666,133.489 116.499,128.489 116,123.5C 115.209,124.745 114.709,126.078 114.5,127.5C 113.826,130.526 112.993,133.526 112,136.5C 110,139.167 108,139.167 106,136.5C 105.005,132.855 104.172,129.188 103.5,125.5C 103.217,124.711 102.717,124.044 102,123.5C 101.501,128.489 101.334,133.489 101.5,138.5C 99.8333,138.5 98.1667,138.5 96.5,138.5C 96.5,130.833 96.5,123.167 96.5,115.5C 99.5719,115.183 102.572,115.516 105.5,116.5C 106.766,120.465 107.933,124.465 109,128.5C 110.863,124.351 112.03,120.018 112.5,115.5C 115.5,115.5 118.5,115.5 121.5,115.5C 121.5,123.167 121.5,130.833 121.5,138.5C 119.833,138.5 118.167,138.5 116.5,138.5 Z"/></g>
<g><path style="opacity:1" fill="#3e3e3e" d="M 103.5,125.5 C 102.833,129.833 102.167,134.167 101.5,138.5C 101.334,133.489 101.501,128.489 102,123.5C 102.717,124.044 103.217,124.711 103.5,125.5 Z"/></g>
<g><path style="opacity:1" fill="#7d7d7d" d="M 116.5,138.5 C 115.833,134.833 115.167,131.167 114.5,127.5C 114.709,126.078 115.209,124.745 116,123.5C 116.499,128.489 116.666,133.489 116.5,138.5 Z"/></g>
<g><path style="opacity:1" fill="#353535" d="M 50.5,147.5 C 52.288,147.215 53.9547,147.548 55.5,148.5C 53.0087,149.541 53.0087,150.374 55.5,151C 54.0267,151.71 53.3601,152.876 53.5,154.5C 52.5,154.5 51.5,154.5 50.5,154.5C 50.5,152.167 50.5,149.833 50.5,147.5 Z"/></g>
<g><path style="opacity:1" fill="#171717" d="M 66.5,147.5 C 68.5922,147.561 70.0922,148.561 71,150.5C 71.4828,149.552 71.6495,148.552 71.5,147.5C 72.5,147.5 73.5,147.5 74.5,147.5C 74.8076,149.924 74.4742,152.257 73.5,154.5C 72.8076,153.975 72.3076,153.308 72,152.5C 70.5823,155.001 69.5823,154.668 69,151.5C 68.7508,152.624 68.2508,153.624 67.5,154.5C 66.5258,152.257 66.1924,149.924 66.5,147.5 Z"/></g>
<g><path style="opacity:1" fill="#191919" d="M 77.5,147.5 C 78.7251,148.152 79.3917,149.319 79.5,151C 79.1667,152.167 78.8333,153.333 78.5,154.5C 77.5258,152.257 77.1924,149.924 77.5,147.5 Z"/></g>
<g><path style="opacity:1" fill="#000000" d="M 82.5,147.5 C 83.9125,149.496 85.2459,151.663 86.5,154C 85.2068,154.49 83.8734,154.657 82.5,154.5C 82.5,152.167 82.5,149.833 82.5,147.5 Z"/></g>
<g><path style="opacity:1" fill="#000000" d="M 89.5,147.5 C 90.7251,148.152 91.3917,149.319 91.5,151C 91.1667,152.167 90.8333,153.333 90.5,154.5C 89.5258,152.257 89.1924,149.924 89.5,147.5 Z"/></g>
<g><path style="opacity:1" fill="#171717" d="M 123.5,147.5 C 125.592,147.561 127.092,148.561 128,150.5C 128.483,149.552 128.649,148.552 128.5,147.5C 129.5,147.5 130.5,147.5 131.5,147.5C 131.808,149.924 131.474,152.257 130.5,154.5C 129.808,153.975 129.308,153.308 129,152.5C 127.582,155.001 126.582,154.668 126,151.5C 125.751,152.624 125.251,153.624 124.5,154.5C 123.526,152.257 123.192,149.924 123.5,147.5 Z"/></g>
<g><path style="opacity:1" fill="#1a1a1a" d="M 134.5,147.5 C 136.167,147.5 137.833,147.5 139.5,147.5C 139.88,150.792 138.547,153.125 135.5,154.5C 134.526,152.257 134.192,149.924 134.5,147.5 Z"/></g>
<g><path style="opacity:1" fill="#101010" d="M 151.5,147.5 C 153.074,147.937 154.241,148.937 155,150.5C 155.333,149.5 155.667,148.5 156,147.5C 156.814,149.902 156.647,152.235 155.5,154.5C 154.416,153.335 153.583,152.002 153,150.5C 152.667,151.833 152.333,153.167 152,154.5C 151.503,152.19 151.337,149.857 151.5,147.5 Z"/></g>
<g><path style="opacity:1" fill="#262626" d="M 59.5,147.5 C 60.675,147.281 61.675,147.614 62.5,148.5C 63.77,150.548 64.1033,152.548 63.5,154.5C 61.8333,153.167 60.1667,153.167 58.5,154.5C 57.7208,152.115 58.0542,149.782 59.5,147.5 Z"/></g>
<g><path style="opacity:1" fill="#131313" d="M 114.5,147.5 C 120.158,146.679 121.825,148.846 119.5,154C 114.279,154.61 112.612,152.443 114.5,147.5 Z"/></g>
<g><path style="opacity:1" fill="#282828" d="M 35.5,147.5 C 36.8333,147.5 38.1667,147.5 39.5,147.5C 40.3635,149.895 40.3635,152.229 39.5,154.5C 38.1667,153.167 36.8333,153.167 35.5,154.5C 34.6365,152.229 34.6365,149.895 35.5,147.5 Z"/></g>
<g><path style="opacity:1" fill="#202020" d="M 107.5,147.5 C 111.838,147.622 112.172,147.955 108.5,148.5C 108.5,149.833 108.5,151.167 108.5,152.5C 109.675,152.281 110.675,152.614 111.5,153.5C 109.994,154.747 108.494,154.747 107,153.5C 106.322,151.402 106.489,149.402 107.5,147.5 Z"/></g>
<g><path style="opacity:1" fill="#cacaca" d="M 116.5,148.5 C 118.912,148.694 119.912,150.027 119.5,152.5C 118.167,152.5 116.833,152.5 115.5,152.5C 115.433,151.041 115.766,149.708 116.5,148.5 Z"/></g>
<g><path style="opacity:1" fill="#121212" d="M 159.5,148.5 C 161.357,148.505 163.357,148.338 165.5,148C 164.277,150.052 163.277,152.219 162.5,154.5C 161.792,152.255 160.792,150.255 159.5,148.5 Z"/></g>
<g><path style="opacity:1" fill="#151515" d="M 94.5,147.5 C 95.7498,147.577 96.5831,148.244 97,149.5C 97.5354,147.729 98.3687,147.396 99.5,148.5C 96.9548,156.439 95.2882,156.106 94.5,147.5 Z"/></g>
<g><path style="opacity:1" fill="#212121" d="M 143.5,147.5 C 144.822,147.33 145.989,147.663 147,148.5C 147.346,150.218 147.846,151.885 148.5,153.5C 148.167,153.833 147.833,154.167 147.5,154.5C 145.412,153.821 143.412,153.488 141.5,153.5C 142.372,151.55 143.039,149.55 143.5,147.5 Z"/></g>
</svg>
